<svg version="1.1" xmlns="http://www.w3.org/2000/svg" xmlns:xlink="http://www.w3.org/1999/xlink" width="800" height="800"><defs/><g transform="scale(2,2)"><g id="background-530ccbf8"><rect fill="white" stroke="none" x="0" y="0" width="400" height="400" class="dcg-svg-background"/></g><g id="background-images-530ccbf8"/><g id="graphpaper-530ccbf8"><g id="axis-530ccbf8"><g><g><path fill="none" stroke="rgb(0,0,0)" class="dcg-svg-tickmark" paint-order="fill stroke markers" d="" stroke-opacity="0.9" stroke-miterlimit="2" stroke-width="1.5" stroke-dasharray=""/></g></g></g></g><g id="expressions-530ccbf8"><g id="sketch-530ccbf8"><title>Expression 1</title><path fill="#c74440" stroke="none" paint-order="stroke fill markers" d="" fill-opacity="0.4"/><g><path fill="none" stroke="#c74440" class="dcg-svg-curve" paint-order="fill stroke markers" d=" M 276.84375 214.91707749009603 L 276.84375 214.91707749009603 L 275.2177593232241 217.078125 L 274.5451831164103 218.29518311641033 L 273.64952319567914 220.59375 L 273.328125 221.91637387605047 L 273.0686890934992 224.62824681300165 L 273.4036052194916 227.7004802194916 L 274.22028075016505 230.24846924983498 L 275.0859375 231.95563341838678 L 275.6949060321274 232.8984375 L 277.14420928057194 234.65625 L 279.17452905327673 236.4140625 L 280.9954793836022 237.53577061639788 L 283.48366323369214 238.56321176630786 L 285.6110425004906 239.0616662497547 L 287.35581251132714 239.2366125104688 L 288.4613864960073 239.24263649600732 L 290.90625 238.96563196719487 L 294.42187500000006 237.80709547841752 L 295.16392769239036 237.4298223076097 L 298.364163350256 235.08291335025598 L 298.7885481370248 234.65625 L 301.3308441023019 231.0183441023019 L 301.453125 230.76341606636524 L 302.5051527899615 227.625 L 302.7959835648536 225.45223356485357 L 302.81625030324994 224.31199419504168 L 302.5595803304593 221.8964643390814 L 302.05652221864545 219.99035278135455 L 301.453125 218.4883921192559 L 300.69589192390765 217.078125 L 299.43586899025576 215.3203125 L 297.6958881244521 213.5625 L 295.1319342325525 211.8046875 L 293.44488352185095 211.02386647814905 L 291.2084037737319 210.3490287737319 L 289.1554545179223 210.046875 L 286.8252304041856 210.046875 L 283.875 210.57244567673794 L 281.6890561445352 211.3765561445352 L 279.78789108577536 212.41953217155074 L 277.510136985141 214.228886985141 L 276.84375 214.91707749009603" stroke-linecap="round" stroke-linejoin="round" stroke-miterlimit="10" stroke-width="2.5" stroke-opacity="0.9" stroke-dasharray=""/></g><g><path fill="none" stroke="#c74440" class="dcg-svg-curve" paint-order="fill stroke markers" d=" M 113.53321360144615 222.18553639855386 L 113.53321360144615 222.18553639855386 L 113.32809891448672 224.36487004274824 L 113.38028587769772 225.8802858776977 L 113.6402271097916 227.625 L 113.94336505422632 228.8066349457737 L 115.12500000000001 231.61416052684433 L 116.32722407049361 233.45402592950637 L 117.35684270050184 234.65625 L 118.640625 235.84966938252296 L 119.97989107290624 236.83260892709376 L 122.55827911762923 238.171875 L 124.9401770821815 238.90357291781848 L 126.6775805096757 239.1775805096757 L 129.1875 239.2146206702871 L 132.98844402097927 238.45719402097924 L 133.76418994487196 238.171875 L 136.21875 236.92101779257519 L 137.5435217273614 235.9810217273614 L 139.734375 233.83608221539612 L 140.86621354329856 232.27246354329856 L 141.50817129984657 231.140625 L 142.75824734442043 227.625 L 142.84000053372537 227.21500053372537 L 143.05921421938393 223.91858921938393 L 142.8944058933393 222.3515625 L 142.4958660508134 220.59375 L 142.10721151385644 219.45096151385644 L 140.45400015722367 216.35849984277633 L 139.734375 215.41574394670204 L 137.8990790174734 213.5625 L 136.21875 212.33086239900013 L 132.703125 210.70168180187113 L 132.19789618652226 210.55210381347774 L 129.18750000000003 210.03722253396077 L 126.98980114755581 210.046875 L 125.47747261296917 210.24127738703086 L 122.15624999999997 211.24811300566404 L 120.61943013012711 212.02568013012709 L 118.4495075237434 213.5625 L 116.78878263869144 215.22628263869146 L 115.12500000000001 217.63764241614797 L 113.89937059587277 220.59375 L 113.53321360144615 222.18553639855386" stroke-linecap="round" stroke-linejoin="round" stroke-miterlimit="10" stroke-width="2.5" stroke-opacity="0.9" stroke-dasharray=""/></g></g><g id="sketch-530ccbf8"><title>Expression 2</title><path fill="#388c46" stroke="none" paint-order="stroke fill markers" d="" fill-opacity="0.4"/><g><path fill="none" stroke="#388c46" class="dcg-svg-curve" paint-order="fill stroke markers" d=" M 136.21875 199.08064516541842 L 136.21875 199.08064516541842 L 135.71413719579635 198.99538719579633 L 131.39846603247446 198.62915424885384 L 128.43814952426575 198.75064952426575 L 124.08113251535572 199.5 L 122.15624999999997 200.06297740282957 L 117.64691600207863 202.02191600207863 L 115.12500000000001 203.5848333771176 L 111.60158914063746 206.53125 L 109.36320173761803 209.070153475236 L 108.09375 210.8670021522677 L 106.57785884579161 213.5625 L 105.18306513026816 217.078125 L 104.578125 219.3878840301868 L 104.35279964452462 220.59375 L 104.0285209978765 224.6589790021235 L 104.20741741301173 227.625 L 105.00030239730334 231.56280239730333 L 106.10442338296433 234.65625 L 106.73752131058892 236.01247868941107 L 108.09375 238.38499982344894 L 110.61932865983358 241.6875 L 112.8908282204648 243.92167177953522 L 115.12500000000001 245.667074764778 L 118.640625 247.74635701183624 L 122.15625 249.18891369858827 L 122.84526785674387 249.4077678567439 L 125.671875 250.10703829281903 L 129.1875 250.5609029515671 L 132.47262440070156 250.59181279964923 L 135.69926377512286 250.25892032795306 L 137.42965968809173 249.92965968809173 L 141.49380135610377 248.71875 L 143.25 247.9901348497167 L 148.41462089343088 244.98549178686176 L 150.28125 243.5045972712069 L 152.1968883368198 241.6875 L 154.53134751132364 238.90634751132362 L 155.04918993845493 238.171875 L 157.3125 234.09126299437114 L 158.24612953368276 231.6074397668414 L 158.87013610389934 229.1826361038993 L 159.12916504895009 227.625 L 159.32390609532487 224.3332118185389 L 159.2279661962035 222.5092161962035 L 158.96952555226284 220.59375 L 158.68337323297484 219.22287676702516 L 158.06028235503686 217.078125 L 156.8027597421391 214.07224025786087 L 156.54163243881735 213.5625 L 155.47195916312205 211.72195916312205 L 153.796875 209.38662503649124 L 150.28125 205.74727370026872 L 146.54910747829646 203.015625 L 142.01450454553378 200.7354954544662 L 138.18529212036287 199.5 L 136.21875 199.08064516541842" stroke-linecap="round" stroke-linejoin="round" stroke-miterlimit="10" stroke-width="2.5" stroke-opacity="0.9" stroke-dasharray=""/></g><g><path fill="none" stroke="#388c46" class="dcg-svg-curve" paint-order="fill stroke markers" d=" M 290.90625 199.23196260820308 L 290.90625 199.23196260820308 L 290.5698555023957 199.16360550239565 L 284.7458316409419 198.6291683590581 L 283.0699000747002 198.69490007470014 L 276.84375 199.80142158206905 L 271.99867531455357 201.68617531455357 L 269.5962865484684 203.015625 L 266.296875 205.38111386471076 L 263.8829693594267 207.63296935942665 L 261.83550309342274 210.046875 L 260.7780268160485 211.55927681604845 L 259.265625 214.22822673660454 L 258.0851114881253 217.078125 L 257.576148648707 218.767601351293 L 256.9899952071885 221.83374520718846 L 256.82012763007896 224.4733116702317 L 257.01622863161276 227.625 L 257.2671457497595 229.14214574975946 L 258.12288213857386 232.28336786142614 L 259.26562500000006 235.02358831509832 L 261.09620473696276 238.171875 L 263.3857181540396 241.08303184596042 L 265.533358871896 243.21453225620797 L 267.03626806790453 244.46373193209547 L 269.8125 246.36814026688478 L 271.3146037161874 247.21664628381265 L 274.65159821729736 248.71875 L 277.8489820324819 249.7239820324819 L 282.1172774240419 250.47647257595807 L 283.875 250.60066221001478 L 287.26616538692025 250.53879230653988 L 290.90625 250.01998290172938 L 291.964517609415 249.77701760941497 L 295.29528844352143 248.71875 L 297.9375 247.52786408218992 L 301.5426496841073 245.2926496841073 L 302.77438394654905 244.33001789309807 L 305.5260541493157 241.6875 L 308.30166442314254 237.98916442314254 L 308.484375 237.68942661191613 L 310.04096523131085 234.65625 L 310.5975271438464 233.25377714384635 L 311.2617076044036 231.140625 L 312 227.05140482884462 L 312.11680900468025 224.5648009275119 L 312.00000000000006 222.20094172402412 L 311.7509854594245 220.34473545942447 L 310.9623208309717 217.078125 L 310.31257942559773 215.24992057440227 L 309.56753856620696 213.5625 L 307.8987396686742 210.6325103313258 L 307.500648511472 210.046875 L 304.5437965072894 206.53125 L 300.9399325060822 203.52881749391784 L 300.1720317479385 203.015625 L 296.4327349548902 201.00476504510985 L 294.11867397527163 200.10640204945676 L 290.90625 199.23196260820308" stroke-linecap="round" stroke-linejoin="round" stroke-miterlimit="10" stroke-width="2.5" stroke-opacity="0.9" stroke-dasharray=""/></g></g><g id="sketch-530ccbf8"><title>Expression 3</title><path fill="#6042a6" stroke="none" paint-order="stroke fill markers" d="" fill-opacity="0.4"/><g><path fill="none" stroke="#6042a6" class="dcg-svg-curve" paint-order="fill stroke markers" d=" M 157.3125 187.38715952440245 L 157.3125 187.38715952440245 L 155.8443253390168 186.9056746609832 L 150.28125 185.4121870666113 L 143.25 184.28169819376615 L 141.98197374486566 184.16947374486568 L 136.21875 184.0242580077681 L 132.703125 184.23981384781567 L 128.5582113087893 184.8082113087893 L 125.59057577947591 185.43749999999997 L 122.15625 186.4161543945581 L 117.7810296971234 188.09352969712342 L 115.12499999999999 189.37741077302138 L 111.60937500000001 191.43644392453479 L 108.09375 193.98604926646954 L 104.578125 197.16721317058327 L 101.82402000948201 200.261520009482 L 99.80019942120738 203.015625 L 98.919438857689 204.388188857689 L 97.54687499999999 206.81526760638 L 96.04967493895273 210.046875 L 94.63027497697851 214.1615249769785 L 93.92565845242994 217.078125 L 93.31927472026562 221.3057252797344 L 93.17530936157308 224.50461103060246 L 93.35212603156927 228.30412396843076 L 94.03125000000001 232.6820705930835 L 94.6964954478439 235.3214954478439 L 96.1856226020958 239.53312739790422 L 97.35719019323345 242.06686961353304 L 98.53197871950773 244.21802128049225 L 101.60792943527426 248.71875 L 104.65250421114291 252.15999578885706 L 108.70554199193727 255.75 L 112.49725125555264 258.37774874444733 L 115.12500000000001 259.8744794980114 L 118.640625 261.52896591361775 L 122.23704464054926 262.86204464054924 L 127.68941252198726 264.27933747801274 L 131.9187917036314 264.9312291481843 L 133.88861980909778 265.11138019090225 L 138.67732174376903 265.23982174376897 L 143.25 264.97025151937777 L 150.28125 263.83971802104566 L 154.41071712236942 262.78125 L 157.31250000000003 261.86474891248486 L 161.75088021426416 260.18838021426416 L 164.34375 259.05545859073413 L 172.18302023488107 254.94197976511896 L 179.71302348803414 250.0255234880341 L 185.4375 245.67793518369533 L 190.20315345598868 241.6875 L 195.09603124360314 237.28353124360314 L 203.69733916297028 228.98842832594056 L 207.99971795865113 224.69893670865113 L 208.43406651911698 224.98828125 L 219.45698467042814 235.7930153295719 L 225.94223670148088 241.6875 L 227.62500000000003 243.1326585875986 L 234.7050943950474 248.7675943950474 L 243.04455420925646 254.39294579074354 L 248.71875 257.56104758885215 L 252.24347375345408 259.25652624654595 L 255.75 260.7355158225837 L 263.18628877751917 263.18628877751917 L 269.8125 264.5797883411834 L 276.0646511061515 265.19703284878517 L 279.3038484895244 265.2413484895244 L 283.875 264.9689903749924 L 290.90625 263.7269139639857 L 294.1551846000245 262.78125 L 297.9375 261.3450675089201 L 301.698491718718 259.510991718718 L 304.96875 257.53031566368634 L 307.4398606809967 255.75 L 309.9181135595687 253.66811355956872 L 312 251.63882693531562 L 314.53745760232584 248.71875 L 316.42673610007296 246.114236100073 L 319.03125000000006 241.57864561521137 L 321.0345493831723 236.6595493831723 L 321.6353207959184 234.65625 L 322.3840177412395 231.30348225876045 L 322.85268863476676 227.625 L 322.9590046876175 223.69724531238253 L 322.75747733315563 220.59375 L 322.2197372279214 217.078125 L 322.1346208647681 216.66587086476812 L 321.3402594447155 213.5625 L 320.0957157552324 210.046875 L 318.449456122319 206.53125 L 317.7247775251352 205.22477752513515 L 315.515625 201.82662569814676 L 312.90679991612626 198.59320008387377 L 310.3528339423672 195.984375 L 308.484375 194.33977551607836 L 304.96875 191.7215993634423 L 301.0259316146564 189.38031838534363 L 297.9375 187.90688321826352 L 296.18210717139414 187.19289282860586 L 290.5548196096882 185.43749999999997 L 283.875 184.2829568477059 L 282.6042793952753 184.16677939527526 L 277.9906701229532 184.00533080509618 L 269.15218634907075 184.7771863490707 L 265.7500799511529 185.43749999999997 L 262.78125 186.17508003856065 L 255.75 188.51635546904018 L 248.20526489501054 191.95526489501057 L 247.23184198600626 192.46875 L 239.3789295784704 197.1914295784704 L 234.65625000000003 200.52063484476778 L 227.62500000000003 206.11927749436902 L 223.6524714231773 209.5899714231773 L 216.39227822054852 216.39227822054852 L 207.92258798530509 224.47584951469494 L 205.2842297506908 221.84077024930923 L 196.79813781547372 213.5625 L 189.00471903145186 206.53125 L 183.1566309370293 201.78086906297074 L 178.40625 198.306523157696 L 174.89940930261145 195.97559069738855 L 168.9135526075097 192.46875 L 164.34375 190.19648704318428 L 160.38874154856467 188.51374154856467 L 157.3125 187.38715952440245" stroke-linecap="round" stroke-linejoin="round" stroke-miterlimit="10" stroke-width="2.5" stroke-opacity="0.9" stroke-dasharray=""/></g></g><g id="sketch-530ccbf8"><title>Expression 4</title><path fill="#000000" stroke="none" paint-order="stroke fill markers" d="" fill-opacity="0.4"/><g><path fill="none" stroke="#000000" class="dcg-svg-curve" paint-order="fill stroke markers" d=" M 157.3125 166.25294935055948 L 157.3125 166.25294935055948 L 148.45085001279634 166.17414998720366 L 143.25 166.44540352388228 L 136.21875 167.253143632964 L 132.69019857999183 167.87230142000817 L 127.01664156065503 169.20414156065502 L 120.32854704800566 171.37499999999997 L 115.12500000000001 173.5857154017917 L 110.49611407119546 176.00388592880455 L 106.6307036583164 178.40625000000003 L 99.56324152380768 183.93824152380765 L 97.97380264517237 185.43749999999997 L 92.7932486772667 191.23074867726672 L 91.85476858287299 192.46875 L 87.2865946576967 199.7865946576967 L 87 200.3442947900228 L 84.3303164143811 206.53125 L 83.26302795168226 209.82552795168226 L 82.32760080261093 213.5625 L 81.45106508323536 219.11143491676464 L 81.23614925696265 221.86114925696262 L 81.24887844993144 227.625 L 81.80025748112672 232.8247425188733 L 82.11875375244104 234.65625 L 82.72299372162581 237.41049372162578 L 83.97033982932618 241.6875 L 84.77501713371639 243.9124828662836 L 87 248.90762456964617 L 89.47084344676546 253.27915655323454 L 91.11134078417228 255.75 L 94.03125000000001 259.55372702747275 L 96.94386927588086 262.78125 L 101.0625 266.63202537941686 L 105.14011709741163 269.8125 L 108.09375 271.79990321614736 L 111.25873269809892 273.6787673019011 L 115.12500000000001 275.6661858239201 L 117.75054352665519 276.84375 L 122.15625 278.54033543792735 L 124.68073800436025 279.36823800436025 L 131.85261003677886 281.20988996322114 L 136.21875 281.99879902394207 L 144.24629991589921 282.8787000841008 L 153.2270717400474 283.1126799182591 L 158.2305117108528 282.9569882891472 L 164.34375 282.5431889011068 L 173.6802103821193 281.5697896178807 L 192.46875 279.33604467707517 L 199.5 278.7771686775428 L 208.20526219296252 278.5177621929625 L 213.5625 278.62545690514844 L 223.02331835217922 279.2733183521792 L 234.65625000000003 280.6001104387851 L 248.71875 282.2588072004158 L 256.73048210564974 282.89451789435026 L 262.38246649735976 283.10492687409277 L 270.73699063732755 282.9505093626725 L 276.84375 282.41956600929177 L 283.875 281.29564495553586 L 287.2005668907253 280.5494331092747 L 292.9543211437254 278.8918211437254 L 298.3948456042252 276.84375 L 304.96875 273.63304265877616 L 312 269.08652927940483 L 315.80070312030745 266.0117968796926 L 318.1969236443475 263.7896092172921 L 321.2526687294792 260.5598312705207 L 325.4549840335047 255.1424840335047 L 326.0625 254.23443427694815 L 329.24066540514434 248.71875 L 330.47125888081683 246.09625888081678 L 332.1750501992223 241.6875 L 333.09374999999994 238.6739375848524 L 334.23236834416326 233.5176316558367 L 334.89651859296794 227.625 L 334.89732813968965 221.64128189039943 L 334.68305509477864 219.00444490522136 L 333.817788052832 213.5625 L 333.09374999999994 210.5779315769403 L 331.81507945398465 206.53125 L 331.0210042306287 204.45850423062868 L 328.708386541452 199.5 L 327.7680132569924 197.79448674300764 L 326.0625 195.01748066640684 L 324.29062773094 192.46875 L 321.97157599983274 189.52842400016726 L 318.1715879755756 185.43749999999997 L 314.93930624920773 182.4981937507923 L 312 180.16534938185856 L 309.51469331874085 178.40625000000003 L 304.96875 175.6188822861573 L 297.3409102982512 171.97158970174883 L 295.81684326643375 171.37499999999997 L 290.90625 169.71387165960115 L 283.875 167.95624892398232 L 276.84375 166.8323559033629 L 274.5956259165194 166.5918740834806 L 269.8125 166.25362530094205 L 264.4527079714678 166.12965850648393 L 260.94631561797286 166.17868438202714 L 255.75 166.41593385121922 L 245.7590078928006 167.3034921071994 L 220.59375 170.19391565618142 L 212.8402491943896 170.65274919438957 L 207.91119682361892 170.73413906446018 L 198.53996215732224 170.41496215732224 L 187.43676318793823 169.37573681206177 L 164.34375 166.70874997039164 L 157.3125 166.25294935055948" stroke-linecap="round" stroke-linejoin="round" stroke-miterlimit="10" stroke-width="2.5" stroke-opacity="0.9" stroke-dasharray=""/></g></g><g id="sketch-530ccbf8"><title>Expression 5</title><path fill="#c74440" stroke="none" paint-order="stroke fill markers" d="" fill-opacity="0.4"/><g><path fill="none" stroke="#c74440" class="dcg-svg-curve" paint-order="fill stroke markers" d=" M 157.3125 146.10434530810195 L 157.3125 146.10434530810195 L 150.28125 146.87232206246844 L 143.25 147.94310950323043 L 135.48246828752048 149.54496828752048 L 129.1875 151.2198908109511 L 122.15625 153.55470620960048 L 114.54178097973063 156.7292809797306 L 113.31384168171051 157.3125 L 108.09375 160.04172367171589 L 105.38316051657893 161.6331605165789 L 101.0625 164.44995639208395 L 97.08088708460645 167.39338708460647 L 92.3872088387027 171.37499999999997 L 89.63939196086307 174.01439196086307 L 85.60285659714498 178.40625000000003 L 83.08834964011999 181.52584964012 L 79.96874999999999 185.93331619387274 L 77.49393198969322 189.9939319896932 L 76.15630960102139 192.46875 L 72.9375 199.6517186661111 L 70.69654463712527 206.53125 L 69.77099875937782 210.39599875937782 L 69.18336136720914 213.5625 L 68.62369688186133 217.87630311813868 L 68.31284952365876 223.00034952365877 L 68.35877814907084 227.625 L 68.67569386729275 231.88680613270722 L 69.02422445750688 234.65625 L 69.68389822053732 238.4338982205373 L 70.9587146316763 243.66628536832368 L 72.93749999999999 249.60025098939096 L 75.63396093377658 255.75 L 79.96874999999999 263.3186263096352 L 85.77044149228804 271.0420585077119 L 87 272.44349227204236 L 92.70692174497678 278.1680782550232 L 94.03125000000001 279.3415137067688 L 101.0625 284.801930718658 L 103.84454741227043 286.65704741227046 L 109.1844289472986 289.81557105270144 L 111.24231574192876 290.90625 L 115.12500000000001 292.7923003971795 L 122.15625 295.697199684172 L 129.3216152436422 298.0716152436422 L 136.21875 299.8796967557457 L 143.25 301.3088045364617 L 150.28125 302.37956401702746 L 157.31250000000003 303.14753918240353 L 165.57754342434973 303.73495657565024 L 177.92794316436354 304.15078771185506 L 191.74591927952315 304.24591927952315 L 235.43356255332841 304.1914374466716 L 247.74991793744334 303.8713918417749 L 255.75 303.40245702890434 L 265.29809288210157 302.45190711789843 L 273.1403802946875 301.2653802946874 L 276.84375 300.55413653642836 L 284.63126868986336 298.69376868986336 L 290.90625 296.78578128371197 L 297.9375 294.14229326348584 L 305.03852531608254 290.83647468391746 L 313.80098604304914 285.67598604304914 L 319.03125000000006 281.88466154950544 L 321.79994904171326 279.61244904171326 L 326.0625 275.6809341086154 L 328.93098823606925 272.6809882360692 L 333.09374999999994 267.6779228926901 L 336.5251406159682 262.78125 L 340.88017402188206 254.99482597811797 L 343.53917518592016 248.71875 L 344.4681431069679 246.03064310696791 L 345.7190983368161 241.6875 L 347.15625 234.41348125541 L 347.78661469569727 227.625 L 347.7001610092564 220.04983899074355 L 346.9620313559336 213.5625 L 345.44885294897864 206.53125 L 344.75507058592603 204.130070585926 L 343.1495438810413 199.5 L 342.2778034406723 197.3471965593277 L 339.9890837634717 192.46875 L 337.5119894020022 188.05051059799771 L 335.8492110406107 185.4375 L 331.69973773030836 179.80026226969161 L 330.5425371052501 178.40625000000003 L 324.9493166058394 172.48818339416061 L 323.7581857761571 171.37499999999997 L 317.3176065605278 166.05739343947212 L 312 162.40337247012454 L 308.8279235119971 160.48457648800292 L 302.83154882317655 157.3125 L 297.9375 155.10959659000966 L 290.90625 152.46611496041794 L 289.2603844332493 151.92711556675067 L 283.6003112690175 150.28125 L 274.8678392415155 148.30533924151547 L 266.1525673020931 146.9099326979069 L 258.5818564630741 146.08185646307408 L 253.32051099058532 145.67948900941468 L 243.6675792788467 145.23007927884666 L 234.65625000000003 145.05166966504964 L 211.7916492134379 145.0208507865621 L 178.40625 145.09307419927455 L 169.2816260845123 145.34337391548766 L 159.94625581456265 145.88375581456265 L 157.3125 146.10434530810195" stroke-linecap="round" stroke-linejoin="round" stroke-miterlimit="10" stroke-width="2.5" stroke-opacity="0.9" stroke-dasharray=""/></g></g><g id="sketch-530ccbf8"><title>Expression 6</title><path fill="#2d70b3" stroke="none" paint-order="stroke fill markers" d="" fill-opacity="0.4"/><g><path fill="none" stroke="#2d70b3" class="dcg-svg-curve" paint-order="fill stroke markers" d=" M 129.1875 133.0518184939657 L 129.1875 133.0518184939657 L 120.41973792414964 136.21874999999994 L 111.8645287079411 139.98952870794113 L 105.60356885334485 143.25 L 101.0625 145.92162179894933 L 92.58750397817126 151.72499602182876 L 85.8025793350526 157.3125 L 78.7050279501276 164.34375 L 72.67258541715066 171.63991458284934 L 67.25132283266709 179.75132283266706 L 65.90625000000001 182.091222002013 L 64.13817166535765 185.43749999999997 L 62.44397632385173 189.0064763238517 L 60.979761422697464 192.46875 L 58.36484243125915 200.01015756874085 L 56.700930677855055 206.53125 L 55.92734396787384 210.6148439678738 L 55.49388334668448 213.5625 L 55.08830827176284 217.34919172823714 L 54.78708638908062 223.53708638908063 L 54.83246321296678 227.625 L 55.05103873926907 231.44896126073095 L 55.366430716803144 234.65625 L 55.94771310831196 238.76021310831194 L 56.90677699581678 243.65572300418322 L 58.875000000000014 250.9010996514481 L 60.575799473484004 255.75 L 61.727812076581245 258.60281207658124 L 64.3850045211701 264.3024954788299 L 67.43761500808367 269.8125 L 69.56298380876999 273.18701619123004 L 72.93750000000003 277.9650774439035 L 75.54431792603489 281.26818207396514 L 79.96874999999999 286.26668947611 L 84.66806902776794 290.90625 L 89.68483801047451 295.2526619895255 L 94.03125000000001 298.5995384554464 L 101.06249999999999 303.33030987396666 L 106.54202360309651 306.5204763969035 L 108.09375 307.35414041080116 L 115.9642116081267 311.1607883918733 L 122.15625 313.7127022624569 L 129.1875 316.2000932616846 L 138.9686342900799 319.03125 L 148.1860925691241 321.12640743087593 L 153.33819082149734 322.08819082149734 L 160.2092314401604 323.1657685598396 L 169.62159361705622 324.3090936170562 L 178.40625 325.08075813714026 L 185.94913900672609 325.5508609932739 L 199.5407035122709 326.0217964877291 L 206.53125 326.09817649272065 L 220.59375 325.92944661197043 L 228.0309196441024 325.65658035589763 L 240.49165259492125 324.8666525949212 L 248.71875 324.07385293367304 L 259.11819690288854 322.6943030971115 L 265.3760799903232 321.62607999032315 L 269.8125 320.74536382568994 L 277.17675936630775 319.03125 L 283.875 317.16662311504183 L 290.90625 314.8539193483689 L 298.2399498784696 312 L 307.5943253125195 307.59432531251946 L 312.3540542464936 304.96875 L 319.03125000000006 300.76987689428523 L 326.0625 295.5742581263737 L 333.09374999999994 289.37859660169886 L 339.18931626136003 282.93931626136 L 340.125 281.8403375015911 L 345.33720280524153 275.0247028052416 L 348.707775757153 269.8125 L 350.6983964737602 266.32339647376017 L 352.51752499188837 262.78125 L 355.18129991126904 256.743799911269 L 356.3768775962446 253.56062240375542 L 357.9339309637585 248.71875 L 358.63912315499846 246.13912315499843 L 359.6593892719722 241.6875 L 360.8242855358137 234.2617855358137 L 361.3129319392955 227.625 L 361.21875000000006 219.6070328498224 L 360.6515114358489 213.5625 L 359.44446434973474 206.53125 L 358.9186383564738 204.23113835647376 L 357.6275300927091 199.5 L 356.7928520734681 196.89464792653192 L 355.1656346059392 192.46875 L 354.18750000000006 190.11152077706006 L 352.0072197330169 185.43749999999997 L 349.4512357175797 180.7012357175797 L 347.15625 176.9446873022202 L 341.9034587931426 169.59654120685747 L 340.125 167.4115547889712 L 335.3321893086032 162.10531069139682 L 330.34281802801513 157.3125 L 326.0625 153.67763722883296 L 319.03125000000006 148.48204626194274 L 311.4739076737259 143.77609232627407 L 310.5418237531012 143.25 L 302.1887331265479 138.99876687345204 L 295.725657824261 136.21874999999994 L 288.1238443326727 133.43634433267266 L 281.6353782057377 131.42712179426223 L 272.91040993932535 129.1875 L 268.95226789512833 128.32726789512827 L 258.4783938995817 126.4591061004183 L 252.14495573366858 125.58245573366855 L 245.98697881005435 124.88802118994562 L 234.65625000000003 123.95914558778395 L 227.62500000000003 123.57688605621365 L 219.45755213121421 123.29244786878576 L 205.5293687850854 123.15813121491459 L 192.46875000000003 123.41919163393698 L 185.4375 123.72787794972055 L 176.22354822988422 124.33895177011578 L 167.37168089013878 125.18418089013875 L 160.447309114203 126.052690885797 L 155.00644624214814 126.88144624214812 L 150.28125 127.71752216835614 L 143.23498169474308 129.18749999999994 L 136.21875 130.94879737182004 L 129.1875 133.0518184939657" stroke-linecap="round" stroke-linejoin="round" stroke-miterlimit="10" stroke-width="2.5" stroke-opacity="0.9" stroke-dasharray=""/></g></g><g id="sketch-530ccbf8"><title>Expression 7</title><path fill="#388c46" stroke="none" paint-order="stroke fill markers" d="" fill-opacity="0.4"/><g><path fill="none" stroke="#388c46" class="dcg-svg-curve" paint-order="fill stroke markers" d=" M 129.18750000000003 114.58107292975433 L 129.18750000000003 114.58107292975433 L 127.59968243102117 115.125 L 118.5585104021493 118.5585104021493 L 115.12500000000001 120.02368567882854 L 108.09375 123.33231403332258 L 101.0625 127.10095395795969 L 97.53192876328076 129.1875 L 91.14607815263629 133.33357815263628 L 87 136.31209406005064 L 79.96874999999999 141.96610010333268 L 75.60703721101189 145.91953721101186 L 71.24665267025885 150.28125 L 68.68762409390818 153.0626240939082 L 65.07832967083299 157.3125 L 62.364626051077295 160.80212605107727 L 58.875000000000014 165.7414504261255 L 55.3545239359603 171.375 L 51.33717520921176 178.91282479078828 L 48.443839078170235 185.4375 L 47.42679277124261 188.0517927712426 L 45.88498124600331 192.46875 L 44.06058071086216 198.74808071086215 L 43.56812186706972 200.74437813293028 L 42.372381201640835 206.53125 L 41.74795556502275 210.49795556502275 L 41.37237352073082 213.5625 L 41.036236728468765 217.33876327153123 L 40.78440124037055 223.59690124037056 L 40.82276268142009 227.625 L 41.00352692342581 231.4339730765742 L 41.26656033475217 234.65625 L 41.72716830540812 238.60216830540813 L 42.59027692350349 243.9097230764965 L 43.618259169846354 248.71875 L 45.55558142846679 255.75 L 45.903888820226676 256.84138882022665 L 48.03243809721834 262.78125 L 49.136932813285874 265.48806718671415 L 51.84375 271.372464932674 L 54.75856913892136 276.84375 L 59.63498690090972 284.6349869009097 L 65.90625000000001 292.9511958915406 L 71.56766740730619 299.30733259269385 L 72.9375 300.7151344320638 L 79.96874999999999 307.2858297633794 L 87 312.939809144154 L 94.03125000000001 317.85411008566257 L 95.86669984810446 319.03125 L 103.5721823288986 323.55281767110137 L 108.37920579346282 326.0625 L 115.12500000000001 329.22823974479127 L 124.7116607839875 333.09375 L 133.30692119893092 336.0055788010691 L 141.47006431957175 338.34506431957175 L 148.78110395242248 340.125 L 155.84865281003715 341.58884718996285 L 164.34375 343.04426872664897 L 171.375 344.01882244579326 L 180.55837355617643 345.00412644382357 L 191.07611962545326 345.76361962545326 L 199.5 346.1062078367888 L 207.4659360047107 346.2215639952893 L 219.45496705283767 346.0174670528377 L 227.62500000000003 345.6137013543758 L 236.93341497026034 344.87908502973966 L 245.49059158153253 343.92809158153256 L 253.02021767947886 342.85478232052117 L 257.6937393408032 342.06873934080323 L 267.3642884439553 340.125 L 270.55450241204863 339.38299758795137 L 280.47378880423463 336.7237888042346 L 283.875 335.67986536731104 L 291.43373336495245 333.09375 L 301.0778996351763 329.20289963517627 L 307.76619128311273 326.0625 L 312 323.86395845346976 L 320.278695216098 319.03125 L 327.9130700054323 313.8505700054323 L 333.09374999999994 309.8656145406553 L 338.783292290829 304.96875 L 343.0559709061758 300.8684709061758 L 347.15625000000006 296.52638446862505 L 351.8930527187272 290.90625 L 355.87119300866823 285.5586930086682 L 357.02619767212207 283.875 L 361.60686955488245 276.4556304451176 L 366.07098354631705 267.633483546317 L 368.25000000000006 262.4299768375374 L 370.5898125988192 255.75 L 371.57003053675686 252.4299694632431 L 373.0364599600384 246.47395996003846 L 373.950789517005 241.6875 L 374.9139320931419 234.2889320931419 L 375.32263260817905 227.625 L 375.28125 220.43676631775466 L 374.7730217274156 213.5625 L 373.7730124110353 206.53125 L 373.42699534929017 204.67699534929017 L 372.27518622126865 199.5 L 371.42955259843615 196.32044740156383 L 370.2604128092925 192.46875 L 367.3208933409058 184.5083933409058 L 363.4408511037603 176.18414889623972 L 360.79086695091684 171.375 L 358.28012322231626 167.28237677768374 L 356.3227830175038 164.34375 L 352.4472603024037 159.05273969759625 L 351.0670610283855 157.3125 L 345.990877930399 151.44662206960103 L 344.89874396783864 150.28125 L 338.94432295941306 144.43067704058691 L 337.63913323887175 143.25 L 331.3299151483219 137.98258485167804 L 326.0625 134.0745071336434 L 319.03125000000006 129.4436881076964 L 314.44760058470064 126.73989941529936 L 312 125.38798152123229 L 304.34867372219975 121.53617372219975 L 295.392296962699 117.67020303730106 L 288.54571362522637 115.125 L 281.6228655813403 112.87286558134025 L 274.1643574991965 110.77314250080349 L 269.8125 109.69166845231331 L 262.50032674029467 108.09375000000006 L 250.7616845832835 106.05081541671649 L 241.6875 104.86721591635325 L 234.65625000000003 104.1651464662819 L 225.19247412146453 103.4950258785355 L 215.6195629391833 103.11956293918337 L 207.6644161919343 103.03004400694454 L 197.35120767775206 103.21129232224797 L 188.0436071672356 103.66860716723568 L 178.40625 104.45079106832765 L 171.375 105.23306907998409 L 162.71270799697953 106.46270799697947 L 153.64507053198247 108.09375000000006 L 149.38204196198947 108.99295803801056 L 139.5479089506113 111.42290895061126 L 136.21875 112.36677259157608 L 129.18750000000003 114.58107292975433" stroke-linecap="round" stroke-linejoin="round" stroke-miterlimit="10" stroke-width="2.5" stroke-opacity="0.9" stroke-dasharray=""/></g></g><g id="sketch-530ccbf8"><title>Expression 8</title><path fill="#6042a6" stroke="none" paint-order="stroke fill markers" d="" fill-opacity="0.4"/><g><path fill="none" stroke="#6042a6" class="dcg-svg-curve" paint-order="fill stroke markers" d=" M 282.5817075717168 225.40266742828322 L 282.5817075717168 225.40266742828322 L 282.5975527385426 225.52448241192502 L 282.8398674028447 226.58986740284465 L 283.4893054449787 228.01069455502133 L 283.875 228.57190681416395 L 285.1705542906808 229.84507070931917 L 285.6328125 230.157344271199 L 287.57574980736297 230.95550019263703 L 288.9999961678449 231.1251854255916 L 290.90625 230.85845082043434 L 293.04729603870777 229.76604603870777 L 293.5291073089872 229.35508961797436 L 294.42187500000006 228.31848717767258 L 295.1742310254885 226.8726439745115 L 295.54731348106264 225.23481348106264 L 295.5554189196262 224.109375 L 295.40108320444784 223.13016679555219 L 295.1639621139376 222.3515625 L 294.1701467886662 220.59375 L 293.1695391762964 219.58279664740724 L 292.4338633985448 219.06613660145518 L 290.90625 218.39325379268502 L 289.0516404085412 218.12660175768855 L 288.4657605505131 218.15326055051304 L 287.390625 218.34245415358328 L 285.6328125 219.0947707450495 L 283.875 220.67990677016215 L 282.9473529840206 222.3515625 L 282.7472087642581 222.98158376425812 L 282.55549294874317 224.109375 L 282.5817075717168 225.40266742828322" stroke-linecap="round" stroke-linejoin="round" stroke-miterlimit="10" stroke-width="2.5" stroke-opacity="0.9" stroke-dasharray=""/></g><g><path fill="none" stroke="#6042a6" class="dcg-svg-curve" paint-order="fill stroke markers" d=" M 132.703125 221.3196882403484 L 132.703125 221.3196882403484 L 132.20334303275192 220.59375 L 131.3772479048823 219.72987919023544 L 130.61951646461492 219.16173353538508 L 129.1875 218.47257760429494 L 126.730030823696 218.13628082369598 L 126.1357407133613 218.1962631564854 L 123.64035942940711 219.1096405705929 L 121.97523535232278 220.59375 L 121.54552206295514 221.20447793704483 L 120.83523044710147 222.78835544710145 L 120.58997972127926 224.109375 L 120.65619758701887 225.6832999090515 L 120.77430691182981 226.24305691182983 L 121.61871488367159 228.16253511632843 L 122.64564953220949 229.3828125 L 123.91406249999999 230.30297778098532 L 125.81267017091264 230.99982982908736 L 127.14355976719827 231.1251946626759 L 129.1875 230.77934569101905 L 131.21844851930507 229.65594851930507 L 131.7289689708998 229.19231294179963 L 132.8744873627149 227.625 L 133.036629228945 227.291495771055 L 133.59931569589676 225.00556569589676 L 133.58988110262408 224.109375 L 133.47999622791238 223.33250377208762 L 133.19805954392677 222.3515625 L 132.703125 221.3196882403484" stroke-linecap="round" stroke-linejoin="round" stroke-miterlimit="10" stroke-width="2.5" stroke-opacity="0.9" stroke-dasharray=""/></g></g><g id="sketch-530ccbf8"><title>Expression 9</title><path fill="#000000" stroke="none" paint-order="stroke fill markers" d="" fill-opacity="0.4"/><g><path fill="none" stroke="#000000" class="dcg-svg-curve" paint-order="fill stroke markers" d=" M 185.4375 84.82332963751423 L 185.4375 84.82332963751423 L 178.40625 85.49104367500155 L 166.8881900089258 86.99999999999994 L 158.71379723152106 88.40129723152103 L 150.28125 90.15461200123207 L 143.25 91.87185094588477 L 135.57423571795775 94.03125 L 125.48645662914417 97.36145662914419 L 122.15625 98.59351685833639 L 114.48191400062198 101.705585999378 L 105.75108341645199 105.75108341645199 L 101.0625 108.16867817585836 L 94.03125000000001 112.15136162974306 L 87 116.61204775019087 L 79.26386650728816 122.15625 L 70.7374579760708 129.18749999999994 L 63.37355470848644 136.21874999999994 L 56.97020062294986 143.25 L 50.151947088297966 151.973052911702 L 44.81249999999999 160.02436899432087 L 40.701091382228874 167.26359138222887 L 37.781249999999986 173.18322064440113 L 35.51336454549294 178.40625000000003 L 34.068912652020394 182.1185873479796 L 32.35833308095143 187.0458330809515 L 30.738692934161097 192.46875 L 29.034260853895272 199.5 L 28.59993541214885 201.65006458785115 L 27.761845886668123 206.53125 L 27.278524604496134 210.09102460449614 L 26.90986471992228 213.5625 L 26.601180967600428 217.7113190323996 L 26.41105895157067 223.28605895157065 L 26.440790238942647 227.625 L 26.819605529815487 234.65625 L 27.154223696704854 238.0917236967049 L 28.02863541764336 244.4088645823566 L 28.82053972300784 248.71875 L 30.75 256.8244126013004 L 32.54611309243036 262.78125 L 35.09764831469496 269.8125 L 38.46598329854409 277.5284832985441 L 42.824612903167925 285.8628870968321 L 45.85628936620838 290.90625 L 48.227467148836716 294.52253285116325 L 51.84375 299.5850312865791 L 56.1011194108943 304.96875 L 60.68118440140546 310.1938155985946 L 65.90625000000001 315.5656684602043 L 69.5882559073231 319.03125 L 75.1578134270701 323.8421865729299 L 79.96874999999999 327.6312974631138 L 87 332.639880844364 L 91.54432029118942 335.5806797088106 L 94.03125000000001 337.1005362069854 L 103.08677755126067 342.1492775512607 L 109.80161888686092 345.4483811131391 L 115.12500000000001 347.8223788211141 L 122.15625 350.65841288135664 L 132.25005963465065 354.1875 L 140.7320120876237 356.70548791237627 L 147.51217542623317 358.44967542623317 L 152.01552146549494 359.48447853450506 L 160.7075534368175 361.21875 L 165.0934669867243 361.9684669867243 L 176.12172074805537 363.50327925194466 L 185.4375 364.4285842295942 L 192.46875 364.91194532571706 L 202.4598023399584 365.2901976600416 L 213.5625 365.2926234593855 L 220.59375 365.0669815018454 L 227.62500000000003 364.66290410673207 L 237.25083256537118 363.8133325653712 L 247.40735461649984 362.5301453835002 L 255.75 361.16222951084956 L 264.62450825396314 359.3754917460369 L 272.9823241960035 357.3573241960035 L 276.84375 356.30775461964555 L 283.8953325193097 354.1875 L 294.29266531344666 350.54266531344666 L 302.5609206676518 347.15625 L 306.96908171067184 345.15591828932816 L 313.6935857343603 341.8185857343602 L 319.03125000000006 338.9021110143107 L 326.0625 334.65858244788404 L 333.09374999999994 329.9000944534817 L 340.125 324.5451585984769 L 347.15625 318.4837724188357 L 354.18750000000006 311.5600482385056 L 361.21875 303.5388073701055 L 366.65730286176426 296.3448028617642 L 370.28910129319684 290.90625 L 372.18632550548836 287.8113255054883 L 375.28125 282.2973423831072 L 378.0034224122382 276.84375 L 381.04774841487966 269.8125 L 382.3125 266.4914854427866 L 383.59927968932703 262.78125 L 385.6847920447733 255.75 L 387.3248517931347 248.71875 L 387.65434650571063 247.02934650571066 L 388.5348648253038 241.6875 L 389.34375 234.4376867070386 L 389.7046035727962 227.625 L 389.66352879340405 220.27397120659595 L 389.2355306304542 213.5625 L 388.2064982959223 205.3939982959223 L 387.11113144129524 199.5 L 385.4066991570556 192.46875 L 383.0140116898541 184.7359883101459 L 382.3125 182.76043909537614 L 380.6320281104239 178.40625000000003 L 379.0319650213313 174.6555349786687 L 377.5126076356712 171.37499999999997 L 373.8601940443043 164.34375 L 371.9024365978929 160.9649365978929 L 368.25 155.2204711024466 L 363.23527686048277 148.2647231395172 L 359.17519486888034 143.25 L 354.18750000000006 137.69189096023376 L 349.9601040657047 133.41489593429532 L 345.4079328926087 129.1875 L 340.125 124.70675863291922 L 333.09374999999994 119.35183891307622 L 324.6214074594306 113.6839074594306 L 317.5883074305193 109.53669256948064 L 312 106.55872071033463 L 304.96875 103.17067600051917 L 296.40686780192215 99.53186780192215 L 288.38005580068983 96.55744419931017 L 280.57116053898307 94.03125 L 275.33835814756077 92.52585814756083 L 266.5100906475613 90.30240935243876 L 257.08629437804467 88.33629437804467 L 248.71875 86.91758056752292 L 240.4913694257144 85.80386942571431 L 229.8689384743371 84.75606152566286 L 220.59375 84.18495648721199 L 210.47850395086266 83.91600395086266 L 202.53986539860102 83.96013460139898 L 192.46875 84.33996300571636 L 185.4375 84.82332963751423" stroke-linecap="round" stroke-linejoin="round" stroke-miterlimit="10" stroke-width="2.5" stroke-opacity="0.9" stroke-dasharray=""/></g></g></g><g id="labels-530ccbf8"/></g></svg>